<?xml version="1.0" encoding="utf-8"?>
<!-- Generator: Adobe Illustrator 22.1.0, SVG Export Plug-In . SVG Version: 6.00 Build 0)  -->
<svg version="1.1" id="Layer_1" focusable="false" xmlns="http://www.w3.org/2000/svg" xmlns:xlink="http://www.w3.org/1999/xlink"
	 x="0px" y="0px" viewBox="0 0 512 512" style="enable-background:new 0 0 512 512;" xml:space="preserve">
<path d="M256,67.6C151.9,67.6,67.6,151.9,67.6,256S151.9,444.5,256,444.5S444.5,360.1,444.5,256S360.1,67.6,256,67.6z M408,256
	c0,17.1-3,33.6-8.2,48.9h-15.4c-3.3,0-6.4-1.3-8.7-3.6l-24.3-24.8c-3.4-3.5-3.4-9.2,0.1-12.7l9.5-9.5v-6.6c0-2.3-0.9-4.5-2.5-6.1
	l-7.1-7.1c-1.6-1.6-3.8-2.5-6.1-2.5h-12.2c-4.7,0-8.6-3.9-8.6-8.6c0-2.3,0.9-4.5,2.5-6.1l7.1-7.1c1.6-1.6,3.8-2.5,6.1-2.5h24.3
	c4.7,0,8.6-3.9,8.6-8.6v-7.1c0-4.7-3.9-8.6-8.6-8.6h-27.9c-6.7,0-12.2,5.5-12.2,12.2v3.4c0,5.2-3.3,9.9-8.3,11.6l-24,8
	c-2.5,0.8-4.2,3.1-4.2,5.8v1.7c0,3.3-2.7,6.1-6.1,6.1h-12.2c-3.3,0-6.1-2.7-6.1-6.1s-2.7-6.1-6.1-6.1h-2.4c-2.3,0-4.4,1.3-5.5,3.3
	l-7.1,14.2c-2.1,4.1-6.2,6.7-10.9,6.7H215c-6.7,0-12.2-5.5-12.2-12.2v-19.2c0-3.2,1.3-6.3,3.6-8.6l15.3-15.3
	c3.5-3.5,5.5-8.3,5.5-13.3c0-2.6,1.7-4.9,4.2-5.8l30.4-10.1c1.3-0.5,2.4-1.1,3.3-2.1l20.4-20.4c1.6-1.6,2.5-3.8,2.5-6.1
	c0-4.7-3.9-8.6-8.6-8.6h-15.7l-12.2,12.2v6.1c0,3.3-2.7,6.1-6.1,6.1h-12.2c-3.3,0-6.1-2.7-6.1-6.1v-15.2c0-1.9,0.9-3.7,2.4-4.9
	l22-16.5c1.4-0.1,2.9-0.2,4.3-0.2C339.8,104,408,172.2,408,256z M166.4,174.8c0-2.3,0.9-4.5,2.5-6.1l19.3-19.3
	c1.6-1.6,3.8-2.5,6.1-2.5c4.7,0,8.6,3.9,8.6,8.6v12.2c0,2.3-0.9,4.5-2.5,6.1l-7.1,7.1c-1.6,1.6-3.8,2.5-6.1,2.5H175
	C170.3,183.4,166.4,179.5,166.4,174.8z M263.7,407.6v-5.4c0-6.7-5.5-12.2-12.2-12.2h-15.3c-8.2,0-20.3-4-26.9-9l-16.9-12.7
	c-8.7-6.5-13.8-16.8-13.8-27.7v-18.2c0-12.2,6.4-23.4,16.8-29.6l32.6-19.5c5.4-3.2,11.6-4.9,17.8-4.9h23.7c8.3,0,16.3,3,22.5,8.3
	l32.8,28.2h13.9c6.5,0,12.6,2.6,17.2,7.1l13.1,13.1c2.6,2.6,6.2,4,9.8,4H389C364.4,374,317.7,404.9,263.7,407.6L263.7,407.6z"/>
</svg>
